<mxfile host="Electron" modified="2023-09-16T08:45:18.573Z" agent="Mozilla/5.0 (Windows NT 10.0; Win64; x64) AppleWebKit/537.36 (KHTML, like Gecko) draw.io/21.7.5 Chrome/114.0.5735.289 Electron/25.8.1 Safari/537.36" etag="980uXdWQgymXRFLiOy6l" version="21.7.5" type="device">
  <diagram name="Page-1" id="NFD44pWHr1t23GtgztIc">
    <mxGraphModel dx="802" dy="473" grid="1" gridSize="10" guides="1" tooltips="1" connect="1" arrows="1" fold="1" page="1" pageScale="1" pageWidth="850" pageHeight="1100" math="0" shadow="0">
      <root>
        <mxCell id="0" />
        <mxCell id="1" parent="0" />
        <mxCell id="yei12vpz1L70PwnT14gX-9" style="edgeStyle=orthogonalEdgeStyle;rounded=0;orthogonalLoop=1;jettySize=auto;html=1;entryX=0.5;entryY=0;entryDx=0;entryDy=0;" edge="1" parent="1" source="yei12vpz1L70PwnT14gX-3" target="yei12vpz1L70PwnT14gX-4">
          <mxGeometry relative="1" as="geometry" />
        </mxCell>
        <mxCell id="yei12vpz1L70PwnT14gX-3" value="&lt;div style=&quot;&quot;&gt;&lt;b style=&quot;background-color: initial;&quot;&gt;&lt;font style=&quot;font-size: 15px;&quot; face=&quot;Verdana&quot;&gt;Deployment&amp;nbsp;&lt;/font&gt;&lt;/b&gt;&lt;/div&gt;" style="rounded=0;whiteSpace=wrap;html=1;fillColor=#f5f5f5;fontColor=#333333;strokeColor=#666666;align=center;" vertex="1" parent="1">
          <mxGeometry x="180" y="120" width="130" height="60" as="geometry" />
        </mxCell>
        <mxCell id="yei12vpz1L70PwnT14gX-10" style="edgeStyle=orthogonalEdgeStyle;rounded=0;orthogonalLoop=1;jettySize=auto;html=1;exitX=0.5;exitY=1;exitDx=0;exitDy=0;entryX=0.5;entryY=0;entryDx=0;entryDy=0;" edge="1" parent="1" source="yei12vpz1L70PwnT14gX-4" target="yei12vpz1L70PwnT14gX-6">
          <mxGeometry relative="1" as="geometry" />
        </mxCell>
        <mxCell id="yei12vpz1L70PwnT14gX-11" style="edgeStyle=orthogonalEdgeStyle;rounded=0;orthogonalLoop=1;jettySize=auto;html=1;exitX=0.25;exitY=1;exitDx=0;exitDy=0;entryX=0.75;entryY=0;entryDx=0;entryDy=0;" edge="1" parent="1" source="yei12vpz1L70PwnT14gX-4" target="yei12vpz1L70PwnT14gX-5">
          <mxGeometry relative="1" as="geometry" />
        </mxCell>
        <mxCell id="yei12vpz1L70PwnT14gX-12" style="edgeStyle=orthogonalEdgeStyle;rounded=0;orthogonalLoop=1;jettySize=auto;html=1;exitX=0.75;exitY=1;exitDx=0;exitDy=0;entryX=0.5;entryY=0;entryDx=0;entryDy=0;" edge="1" parent="1" source="yei12vpz1L70PwnT14gX-4" target="yei12vpz1L70PwnT14gX-7">
          <mxGeometry relative="1" as="geometry" />
        </mxCell>
        <mxCell id="yei12vpz1L70PwnT14gX-4" value="&lt;font face=&quot;Verdana&quot;&gt;&lt;span style=&quot;font-size: 15px;&quot;&gt;&lt;b&gt;Replica Set&lt;/b&gt;&lt;/span&gt;&lt;/font&gt;" style="rounded=0;whiteSpace=wrap;html=1;fillColor=#f5f5f5;fontColor=#333333;strokeColor=#666666;align=center;" vertex="1" parent="1">
          <mxGeometry x="180" y="210" width="130" height="60" as="geometry" />
        </mxCell>
        <mxCell id="yei12vpz1L70PwnT14gX-17" style="edgeStyle=orthogonalEdgeStyle;rounded=0;orthogonalLoop=1;jettySize=auto;html=1;exitX=1;exitY=0.5;exitDx=0;exitDy=0;" edge="1" parent="1" source="yei12vpz1L70PwnT14gX-5">
          <mxGeometry relative="1" as="geometry">
            <mxPoint x="200" y="410" as="targetPoint" />
            <mxPoint x="200" y="350" as="sourcePoint" />
          </mxGeometry>
        </mxCell>
        <mxCell id="yei12vpz1L70PwnT14gX-5" value="Pod 1" style="whiteSpace=wrap;html=1;aspect=fixed;fillColor=#fff2cc;strokeColor=#d6b656;" vertex="1" parent="1">
          <mxGeometry x="115" y="310" width="60" height="60" as="geometry" />
        </mxCell>
        <mxCell id="yei12vpz1L70PwnT14gX-14" style="edgeStyle=orthogonalEdgeStyle;rounded=0;orthogonalLoop=1;jettySize=auto;html=1;entryX=0.5;entryY=0;entryDx=0;entryDy=0;" edge="1" parent="1" source="yei12vpz1L70PwnT14gX-6" target="yei12vpz1L70PwnT14gX-8">
          <mxGeometry relative="1" as="geometry" />
        </mxCell>
        <mxCell id="yei12vpz1L70PwnT14gX-6" value="Pod 2" style="whiteSpace=wrap;html=1;aspect=fixed;fillColor=#fff2cc;strokeColor=#d6b656;" vertex="1" parent="1">
          <mxGeometry x="215" y="310" width="60" height="60" as="geometry" />
        </mxCell>
        <mxCell id="yei12vpz1L70PwnT14gX-15" style="edgeStyle=orthogonalEdgeStyle;rounded=0;orthogonalLoop=1;jettySize=auto;html=1;entryX=0.846;entryY=0;entryDx=0;entryDy=0;entryPerimeter=0;" edge="1" parent="1" source="yei12vpz1L70PwnT14gX-7" target="yei12vpz1L70PwnT14gX-8">
          <mxGeometry relative="1" as="geometry">
            <mxPoint x="345" y="400" as="targetPoint" />
          </mxGeometry>
        </mxCell>
        <mxCell id="yei12vpz1L70PwnT14gX-7" value="Pod N" style="whiteSpace=wrap;html=1;aspect=fixed;fillColor=#fff2cc;strokeColor=#d6b656;" vertex="1" parent="1">
          <mxGeometry x="315" y="310" width="60" height="60" as="geometry" />
        </mxCell>
        <mxCell id="yei12vpz1L70PwnT14gX-28" style="edgeStyle=orthogonalEdgeStyle;rounded=0;orthogonalLoop=1;jettySize=auto;html=1;entryX=1;entryY=0.5;entryDx=0;entryDy=0;" edge="1" parent="1" source="yei12vpz1L70PwnT14gX-8" target="yei12vpz1L70PwnT14gX-18">
          <mxGeometry relative="1" as="geometry">
            <mxPoint x="260" y="540" as="targetPoint" />
            <Array as="points">
              <mxPoint x="245" y="505" />
              <mxPoint x="510" y="505" />
            </Array>
          </mxGeometry>
        </mxCell>
        <mxCell id="yei12vpz1L70PwnT14gX-8" value="&lt;font face=&quot;Verdana&quot;&gt;&lt;span style=&quot;font-size: 15px;&quot;&gt;&lt;b&gt;Metric-server&lt;/b&gt;&lt;/span&gt;&lt;/font&gt;" style="rounded=0;whiteSpace=wrap;html=1;fillColor=#f5f5f5;fontColor=#333333;strokeColor=#666666;align=center;" vertex="1" parent="1">
          <mxGeometry x="180" y="410" width="130" height="60" as="geometry" />
        </mxCell>
        <mxCell id="yei12vpz1L70PwnT14gX-18" value="" style="rounded=1;whiteSpace=wrap;html=1;direction=south;fillColor=#e1d5e7;strokeColor=#9673a6;" vertex="1" parent="1">
          <mxGeometry x="425" y="150" width="170" height="290" as="geometry" />
        </mxCell>
        <mxCell id="yei12vpz1L70PwnT14gX-25" style="edgeStyle=orthogonalEdgeStyle;rounded=0;orthogonalLoop=1;jettySize=auto;html=1;entryX=0.5;entryY=1;entryDx=0;entryDy=0;" edge="1" parent="1" source="yei12vpz1L70PwnT14gX-19" target="yei12vpz1L70PwnT14gX-24">
          <mxGeometry relative="1" as="geometry" />
        </mxCell>
        <mxCell id="yei12vpz1L70PwnT14gX-19" value="&lt;font face=&quot;Verdana&quot; style=&quot;font-size: 14px;&quot;&gt;&lt;b&gt;Monitoring&lt;/b&gt;&lt;/font&gt;" style="rounded=1;whiteSpace=wrap;html=1;fillColor=#ffff88;strokeColor=#36393d;" vertex="1" parent="1">
          <mxGeometry x="450" y="350" width="120" height="60" as="geometry" />
        </mxCell>
        <mxCell id="yei12vpz1L70PwnT14gX-29" style="edgeStyle=orthogonalEdgeStyle;rounded=0;orthogonalLoop=1;jettySize=auto;html=1;exitX=0;exitY=0.5;exitDx=0;exitDy=0;entryX=1;entryY=0.5;entryDx=0;entryDy=0;" edge="1" parent="1" source="yei12vpz1L70PwnT14gX-21" target="yei12vpz1L70PwnT14gX-3">
          <mxGeometry relative="1" as="geometry" />
        </mxCell>
        <mxCell id="yei12vpz1L70PwnT14gX-21" value="&lt;b style=&quot;font-size: 14px;&quot;&gt;&lt;font face=&quot;Verdana&quot;&gt;Actoscaler &lt;br&gt;Decision&amp;nbsp;&lt;/font&gt;&lt;/b&gt;" style="rounded=1;whiteSpace=wrap;html=1;fillColor=#ffe6cc;strokeColor=#d79b00;" vertex="1" parent="1">
          <mxGeometry x="450" y="190" width="120" height="60" as="geometry" />
        </mxCell>
        <mxCell id="yei12vpz1L70PwnT14gX-23" value="&lt;font style=&quot;font-size: 14px;&quot;&gt;Predictive autoscaler&amp;nbsp;&lt;/font&gt;" style="text;strokeColor=none;fillColor=none;html=1;fontSize=24;fontStyle=1;verticalAlign=middle;align=center;" vertex="1" parent="1">
          <mxGeometry x="460" y="150" width="100" height="40" as="geometry" />
        </mxCell>
        <mxCell id="yei12vpz1L70PwnT14gX-26" style="edgeStyle=orthogonalEdgeStyle;rounded=0;orthogonalLoop=1;jettySize=auto;html=1;entryX=0.5;entryY=1;entryDx=0;entryDy=0;" edge="1" parent="1" source="yei12vpz1L70PwnT14gX-24" target="yei12vpz1L70PwnT14gX-21">
          <mxGeometry relative="1" as="geometry" />
        </mxCell>
        <mxCell id="yei12vpz1L70PwnT14gX-24" value="&lt;b style=&quot;border-color: var(--border-color); color: rgb(0, 0, 0); font-family: Verdana; font-size: 14px; font-style: normal; font-variant-ligatures: normal; font-variant-caps: normal; letter-spacing: normal; orphans: 2; text-align: center; text-indent: 0px; text-transform: none; widows: 2; word-spacing: 0px; -webkit-text-stroke-width: 0px; text-decoration-thickness: initial; text-decoration-style: initial; text-decoration-color: initial;&quot;&gt;Prediction&lt;br style=&quot;border-color: var(--border-color);&quot;&gt;Module&lt;/b&gt;" style="rounded=1;whiteSpace=wrap;html=1;fillColor=#fff2cc;strokeColor=#d6b656;" vertex="1" parent="1">
          <mxGeometry x="450" y="270" width="120" height="60" as="geometry" />
        </mxCell>
      </root>
    </mxGraphModel>
  </diagram>
</mxfile>
